HIERARCHY
ROOT ui
{
	 OFFSET 0 0 0
	 CHANNELS 3 XPosition YPosition Z Position
	 EndSite
	 {
	 OFFSET 0 -1 0
	 }
}
ROOT li
{
	 OFFSET 0 0 0
	 CHANNELS 3 XPosition YPosition Z Position
	 EndSite
	 {
	 OFFSET 0 -1 0
	 }
}
ROOT ul
{
	 OFFSET 0 0 0
	 CHANNELS 3 XPosition YPosition Z Position
	 EndSite
	 {
	 OFFSET 0 -1 0
	 }
}
ROOT ll
{
	 OFFSET 0 0 0
	 CHANNELS 3 XPosition YPosition Z Position
	 EndSite
	 {
	 OFFSET 0 -1 0
	 }
}
ROOT tt
{
	 OFFSET 0 0 0
	 CHANNELS 3 XPosition YPosition Z Position
	 EndSite
	 {
	 OFFSET 0 -1 0
	 }
}
ROOT tb
{
	 OFFSET 0 0 0
	 CHANNELS 3 XPosition YPosition Z Position
	 EndSite
	 {
	 OFFSET 0 -1 0
	 }
}
ROOT td
{
	 OFFSET 0 0 0
	 CHANNELS 3 XPosition YPosition Z Position
	 EndSite
	 {
	 OFFSET 0 -1 0
	 }
}
ROOT v
{
	 OFFSET 0 0 0
	 CHANNELS 3 XPosition YPosition Z Position
	 EndSite
	 {
	 OFFSET 0 -1 0
	 }
}
ROOT bn
{
	 OFFSET 0 0 0
	 CHANNELS 3 XPosition YPosition Z Position
	 EndSite
	 {
	 OFFSET 0 -1 0
	 }
}
MOTION
Frames: 21
Frame Time: 0.002
0.01529007339477539	-9.560890197753907E-4	0		0.421018798828125	-2.3593642578125	0		-0.9657374877929688	0.23666941833496094	0		-0.7074500122070313	-2.699891845703125	0		1.7037662353515626	-0.4416888427734375	0		3.267877685546875	-0.13176158142089844	0		4.46552880859375	0.06686540222167969	0		6.0317607421875	0.541779052734375	0		-0.215653076171875	5.91950048828125	0		
-0.007458011150360108	0.0031379389762878416	0		0.3993394775390625	-2.349284912109375	0		-1.034416748046875	0.2463577117919922	0		-0.6712896118164062	-2.70255322265625	0		1.712936767578125	-0.4440115356445313	0		3.28742138671875	-0.10522068786621094	0		4.4698173828125	0.0735965347290039	0		6.04507568359375	0.5503888549804687	0		-0.16621923828125	5.93566845703125	0		
0.018741605758666992	0.0025954349040985107	0		0.4254688415527344	-2.354828125	0		-0.9671041259765625	0.25428999328613283	0		-0.7131426391601563	-2.706219482421875	0		1.7022926025390626	-0.432083740234375	0		3.24849755859375	-0.11493511962890625	0		4.4779287109375	0.06627462768554687	0		6.03627978515625	0.5502808837890625	0		-0.1831038360595703	5.92768017578125	0		
-0.010102883338928222	-0.0012454880475997925	0		0.41473541259765623	-2.34990185546875	0		-0.9668992919921875	0.2540772094726563	0		-0.6481271362304688	-2.72126708984375	0		1.7194437255859376	-0.43651834106445314	0		3.2498046875	-0.10716707611083984	0		4.46613427734375	0.06620882415771484	0		6.02338330078125	0.5422265014648437	0		-0.1639571990966797	5.92222216796875	0		
0.011165545463562012	0.003265065908432007	0		0.41291604614257815	-2.352094970703125	0		-0.972512939453125	0.26793402099609376	0		-0.6919815673828125	-2.725920166015625	0		1.6996513671875	-0.43648004150390624	0		3.250010498046875	-0.10738571166992188	0		4.46716015625	0.05197864532470703	0		6.02847314453125	0.5329447021484375	0		-0.14959893798828125	5.933822265625	0		
-0.009691882133483886	-0.0016879479885101318	0		0.3940498046875	-2.35807275390625	0		-0.9632061767578125	0.275592529296875	0		-0.6499935302734375	-2.743683349609375	0		1.699857177734375	-0.43670037841796877	0		3.266497314453125	-0.08581078338623047	0		4.46353271484375	0.06481360626220703	0		6.0298828125	0.5487179565429687	0		-0.168338623046875	5.93884228515625	0		
0.016507877349853515	-0.0022494399547576902	0		0.3894276428222656	-2.345235595703125	0		-1.0359478759765626	0.2802995910644531	0		-0.7247241821289062	-2.738949462890625	0		1.7000606689453126	-0.436921630859375	0		3.25153369140625	-0.09883255767822266	0		4.47083642578125	0.07251165008544921	0		6.04199169921875	0.5413585815429688	0		-0.18329811096191406	5.92780810546875	0		
-0.006243175029754639	0.0018150899410247802	0		0.41760806274414064	-2.34782373046875	0		-0.9577601318359374	0.279061279296875	0		-0.6566734008789062	-2.752056640625	0		1.68536279296875	-0.4289510192871094	0		3.272908203125	-0.08531648254394532	0		4.4639296875	0.06439585876464844	0		6.0251728515625	0.5403792114257813	0		-0.14906044006347657	5.93313916015625	0		
-0.009108501434326172	-0.002379441022872925	0		0.4137472229003906	-2.353002197265625	0		-0.9684599609375	0.28796139526367187	0		-0.6916699829101562	-2.767843994140625	0		1.679449462890625	-0.43709429931640625	0		3.264120849609375	-0.083410400390625	0		4.46411474609375	0.06419529724121094	0		6.02436767578125	0.541202880859375	0		-0.14891819763183595	5.93290478515625	0		
-0.013871106147766113	0.00244907808303833	0		0.41191610717773436	-2.355207763671875	0		-0.9733406982421875	0.2837818603515625	0		-0.6375403442382812	-2.773778076171875	0		1.6765880126953125	-0.44027529907226565	0		3.2494111328125	-0.07442388916015626	0		4.4522880859375	0.06415506744384766	0		6.0255224609375	0.54001025390625	0		-0.163939697265625	5.92186181640625	0		
-0.00877692699432373	-0.002850819110870361	0		0.39302487182617185	-2.3611953125	0		-0.9800050048828125	0.2976238708496094	0		-0.7044616088867187	-2.782161376953125	0		1.67675146484375	-0.4404932861328125	0		3.24957080078125	-0.07462493133544922	0		4.45653564453125	0.07091514587402344	0		6.03077783203125	0.5477743530273438	0		-0.16763938903808595	5.937673828125	0		
-0.005579822063446045	8.742650151252747E-4	0		0.436157470703125	-2.36497705078125	0		-0.9798624877929687	0.2973760070800781	0		-0.6594521484375	-2.795981201171875	0		1.6769029541015625	-0.4407091369628906	0		3.270049072265625	-0.04908009719848633	0		4.465654296875	0.0686176986694336	0		6.0309169921875	0.5476110229492187	0		-0.1675648651123047	5.937435546875	0		
-0.005442605018615722	6.391469836235046E-4	0		0.41853152465820315	-2.348977294921875	0		-0.9846647338867187	0.30219183349609374	0		-0.6752518310546874	-2.794020263671875	0		1.6880577392578124	-0.44006326293945314	0		3.256136962890625	-0.05309333038330078	0		4.472892578125	0.07635030364990235	0		6.0259453125	0.5395187377929688	0		-0.18264407348632813	5.92639111328125	0		
0.012702254295349122	0.001175935983657837	0		0.4395672912597656	-2.359472412109375	0		-0.9674088745117188	0.3117274169921875	0		-0.6393773803710937	-2.817720458984375	0		1.6931201171875	-0.44633688354492185	0		3.237477294921875	-0.03704084014892578	0		4.46102587890625	0.0763310775756836	0		6.02607177734375	0.5393671264648437	0		-0.16365602111816407	5.9209130859375	0		
-0.008224473953247071	-0.003785429000854492	0		0.39167520141601564	-2.364083251953125	0		-1.0062745361328125	0.31198199462890625	0		-0.6452793579101562	-2.82388232421875	0		1.6732633056640625	-0.446288330078125	0		3.24953564453125	-0.04337910842895508	0		4.46116064453125	0.0761623306274414	0		6.02619970703125	0.5392198486328125	0		-0.19767579650878905	5.91511572265625	0		
0.012979965209960937	7.201560139656067E-4	0		0.4218475036621094	-2.3646865234375	0		-1.006136474609375	0.31174209594726565	0		-0.677261474609375	-2.8367080078125	0		1.669361083984375	-0.4504401245117188	0		3.2440361328125	-0.01548637294769287	0		4.4533916015625	0.0830988998413086	0		6.01833544921875	0.539178466796875	0		-0.16733648681640625	5.93650244140625	0		
-0.009826237678527833	0.0037921290397644044	0		0.3960862731933594	-2.36057080078125	0		-1.0119227905273438	0.31658355712890623	0		-0.6801201171875	-2.840899658203125	0		1.6645977783203125	-0.4445753173828125	0		3.24418994140625	-0.01566348361968994	0		4.469619140625	0.08873381805419922	0		6.0235830078125	0.5469745483398437	0		-0.1672630157470703	5.936279296875	0		
0.021289262771606445	-8.169419765472412E-4	0		0.4222333679199219	-2.36511083984375	0		-0.9885817260742188	0.3300616149902344	0		-0.6520559692382812	-2.852478759765625	0		1.6576712646484375	-0.4526783752441406	0		3.249536865234375	-0.0019002150297164917	0		4.469787109375	0.08857801818847656	0		6.02664306640625	0.5388016967773438	0		-0.18231111145019532	5.92525390625	0		
-0.012508106231689454	4.0775099396705625E-4	0		0.38355551147460937	-2.356818115234375	0		-0.99344921875	0.3259051513671875	0		-0.6249998779296875	-2.866037109375	0		1.6917470703125	-0.4622965393066406	0		3.25182568359375	0.005907376766204834	0		4.4650751953125	0.09649015808105468	0		6.01882373046875	0.5387724609375	0		-0.1530492706298828	5.93667431640625	0		
0.013697076797485351	-1.2279299646615982E-4	0		0.445583251953125	-2.3737998046875	0		-0.9652481689453125	0.3253372802734375	0		-0.669843017578125	-2.872672607421875	0		1.676885009765625	-0.46828512573242187	0		3.222136962890625	0.014127161979675293	0		4.47526806640625	0.09521737670898438	0		6.01492333984375	0.5306969604492188	0		-0.1529014892578125	5.93747216796875	0		
-0.00713608980178833	-0.005047677040100097	0		0.4008043212890625	-2.376415283203125	0		-1.037966552734375	0.33006045532226563	0		-0.6179286499023438	-2.900530029296875	0		1.6740810546875	-0.4714197082519531	0		3.238364013671875	0.013768736839294433	0		4.4675849609375	0.10217715454101563	0		6.01513330078125	0.5295733032226563	0		-0.1667644805908203	5.93545654296875	0		
